# xmcd CD database file
#
# Track frame offsets:
#	150
#	51855
#	79132
#	113550
#	136702
#	173347
#	184020
#	203450
#
# Disc length: 3208 seconds
#
# Revision: 0
# Processed by: cddbd v1.5.1PL0 Copyright (c) Steve Scherf et al.
# Submitted via: CDex 1.51
#
DISCID=560c8608
DTITLE=Martin and Scott - Streams of Light
DYEAR=2004
DGENRE=New Age
TTITLE0=This Brand New Day
TTITLE1=Waterfall
TTITLE2=Old Farmhouses
TTITLE3=Riviera Mist
TTITLE4=Celtic Morning
TTITLE5=Eyes Behing The Veil
TTITLE6=Message To Arnhem
TTITLE7=Streams Of Light
EXTD=YEAR: 2004
EXTT0=
EXTT1=
EXTT2=
EXTT3=
EXTT4=
EXTT5=
EXTT6=
EXTT7=
PLAYORDER=
